<svg width="15" height="15" viewBox="0 0 15 15" fill="none" xmlns="http://www.w3.org/2000/svg">
<path d="M8.61117 0.362432C8.31648 0.130355 7.91702 0 7.50052 0C7.08403 0 6.68456 0.130355 6.38988 0.362432L0.46048 5.03535C0.16564 5.26783 -4.39346e-09 5.58315 0 5.91194C4.39346e-09 6.24072 0.16564 6.55604 0.46048 6.78852C0.75532 7.02101 1.15521 7.15161 1.57218 7.15161C1.98914 7.15161 2.38903 7.02101 2.68387 6.78852L5.92885 4.23064V13.7607C5.92885 14.0894 6.09444 14.4046 6.38918 14.637C6.68393 14.8694 7.08369 15 7.50052 15C7.91736 15 8.31712 14.8694 8.61186 14.637C8.90661 14.4046 9.0722 14.0894 9.0722 13.7607V4.23064L12.3161 6.78852C12.4621 6.90364 12.6354 6.99495 12.8262 7.05725C13.0169 7.11955 13.2214 7.15161 13.4278 7.15161C13.6343 7.15161 13.8387 7.11955 14.0295 7.05725C14.2202 6.99495 14.3935 6.90364 14.5395 6.78852C14.6855 6.67341 14.8013 6.53674 14.8803 6.38634C14.9593 6.23594 15 6.07473 15 5.91194C15 5.74914 14.9593 5.58794 14.8803 5.43753C14.8013 5.28713 14.6855 5.15046 14.5395 5.03535L8.61117 0.362432Z" fill="white"/>
</svg>
