<svg width="30" height="40" viewBox="0 0 30 40" fill="none" xmlns="http://www.w3.org/2000/svg">
<path d="M18.8129 40H11.1871V33.3333H18.8129V40ZM22.5343 23.7167C21.787 24.2433 21.0663 24.7467 20.4944 25.2467C18.9387 26.6033 18.8167 27.8367 18.8129 27.89V28.3333H11.1871V27.7767C11.1871 27.3833 11.2977 23.8533 15.0991 20.53C15.8427 19.88 16.7654 19.22 17.7339 18.5333C20.5325 16.55 22.3704 15.1033 22.3704 13.11C22.3261 11.4261 21.5296 9.82417 20.1515 8.64706C18.7733 7.46995 16.9229 6.81114 14.9962 6.81157C13.0695 6.81201 11.2195 7.47166 9.84206 8.64939C8.46462 9.82712 7.66913 11.4294 7.62583 13.1133H0C0 5.88333 6.72979 0 15 0C23.2702 0 30 5.88333 30 13.1133C30 18.4367 25.5046 21.6133 22.5343 23.7167Z" fill="#FC6011"/>
</svg>
