<svg width="44" height="44" viewBox="0 0 44 44" fill="none" xmlns="http://www.w3.org/2000/svg">
<path d="M39.7778 13.1111C36.66 6.53333 29.86 2 22 2C19.3736 2 16.7728 2.51732 14.3463 3.52241C11.9198 4.5275 9.71504 6.00069 7.85786 7.85786C6.00069 9.71504 4.5275 11.9198 3.52241 14.3463C2.51732 16.7728 2 19.3736 2 22C2 24.6264 2.51732 27.2272 3.52241 29.6537C4.5275 32.0802 6.00069 34.285 7.85786 36.1421C9.71504 37.9993 11.9198 39.4725 14.3463 40.4776C16.7728 41.4827 19.3736 42 22 42C27.3043 42 32.3914 39.8929 36.1421 36.1421C39.8929 32.3914 40.9474 30.885 42 25.9727M42 2V15.3333L28.6667 15.3333" stroke="#FC6011" stroke-width="4" stroke-linecap="round" stroke-linejoin="round"/>
</svg>
