<svg width="40" height="40" viewBox="0 0 40 40" fill="none" xmlns="http://www.w3.org/2000/svg">
<path d="M20 4C17.6425 4 15.3816 4.84285 13.7146 6.34315C12.0476 7.84344 11.1111 9.87827 11.1111 12C11.1111 14.1217 12.0476 16.1566 13.7146 17.6569C15.3816 19.1571 17.6425 20 20 20C22.3575 20 24.6184 19.1571 26.2854 17.6569C27.9524 16.1566 28.8889 14.1217 28.8889 12C28.8889 9.87827 27.9524 7.84344 26.2854 6.34315C24.6184 4.84285 22.3575 4 20 4ZM6.66667 12C6.66667 8.8174 8.07143 5.76516 10.5719 3.51472C13.0724 1.26428 16.4638 0 20 0C23.5362 0 26.9276 1.26428 29.4281 3.51472C31.9286 5.76516 33.3333 8.8174 33.3333 12C33.3333 15.1826 31.9286 18.2348 29.4281 20.4853C26.9276 22.7357 23.5362 24 20 24C16.4638 24 13.0724 22.7357 10.5719 20.4853C8.07143 18.2348 6.66667 15.1826 6.66667 12ZM11.1111 32C9.343 32 7.64731 32.6321 6.39707 33.7574C5.14682 34.8826 4.44444 36.4087 4.44444 38C4.44444 38.5304 4.21032 39.0391 3.79357 39.4142C3.37682 39.7893 2.81159 40 2.22222 40C1.63285 40 1.06762 39.7893 0.650874 39.4142C0.234126 39.0391 0 38.5304 0 38C0 35.3478 1.17063 32.8043 3.25437 30.9289C5.33811 29.0536 8.16426 28 11.1111 28H28.8889C31.8357 28 34.6619 29.0536 36.7456 30.9289C38.8294 32.8043 40 35.3478 40 38C40 38.5304 39.7659 39.0391 39.3491 39.4142C38.9324 39.7893 38.3671 40 37.7778 40C37.1884 40 36.6232 39.7893 36.2064 39.4142C35.7897 39.0391 35.5556 38.5304 35.5556 38C35.5556 36.4087 34.8532 34.8826 33.6029 33.7574C32.3527 32.6321 30.657 32 28.8889 32H11.1111Z" fill="#FC6011"/>
</svg>
