<svg width="15" height="15" viewBox="0 0 15 15" fill="none" xmlns="http://www.w3.org/2000/svg">
<path d="M7.5017 10.125C6.78598 10.125 6.09957 9.84844 5.59348 9.35616C5.08738 8.86387 4.80306 8.19619 4.80306 7.5C4.80306 6.80381 5.08738 6.13613 5.59348 5.64385C6.09957 5.15156 6.78598 4.875 7.5017 4.875C8.21743 4.875 8.90384 5.15156 9.40993 5.64385C9.91602 6.13613 10.2003 6.80381 10.2003 7.5C10.2003 8.19619 9.91602 8.86387 9.40993 9.35616C8.90384 9.84844 8.21743 10.125 7.5017 10.125ZM13.2305 8.2275C13.2614 7.9875 13.2845 7.7475 13.2845 7.5C13.2845 7.2525 13.2614 7.005 13.2305 6.75L14.8574 5.5275C15.0039 5.415 15.0425 5.2125 14.9499 5.0475L13.4079 2.4525C13.3153 2.2875 13.1072 2.22 12.9375 2.2875L11.0176 3.0375C10.6167 2.745 10.2003 2.49 9.71459 2.3025L9.4293 0.315001C9.41364 0.226664 9.36634 0.146572 9.29577 0.088915C9.22521 0.0312584 9.13594 -0.000239831 9.04378 1.3751e-06H5.95962C5.76686 1.3751e-06 5.60494 0.135001 5.5741 0.315001L5.28882 2.3025C4.80306 2.49 4.3867 2.745 3.98576 3.0375L2.06587 2.2875C1.89624 2.22 1.68806 2.2875 1.59554 2.4525L0.0534574 5.0475C-0.0467778 5.2125 -0.000515282 5.415 0.145982 5.5275L1.77288 6.75C1.74204 7.005 1.7189 7.2525 1.7189 7.5C1.7189 7.7475 1.74204 7.9875 1.77288 8.2275L0.145982 9.4725C-0.000515282 9.585 -0.0467778 9.7875 0.0534574 9.9525L1.59554 12.5475C1.68806 12.7125 1.89624 12.7725 2.06587 12.7125L3.98576 11.955C4.3867 12.255 4.80306 12.51 5.28882 12.6975L5.5741 14.685C5.60494 14.865 5.76686 15 5.95962 15H9.04378C9.23654 15 9.39846 14.865 9.4293 14.685L9.71459 12.6975C10.2003 12.5025 10.6167 12.255 11.0176 11.955L12.9375 12.7125C13.1072 12.7725 13.3153 12.7125 13.4079 12.5475L14.9499 9.9525C15.0425 9.7875 15.0039 9.585 14.8574 9.4725L13.2305 8.2275Z" fill="var(--text-color)"/>
</svg>
