<svg width="40" height="40" viewBox="0 0 40 40" fill="none" xmlns="http://www.w3.org/2000/svg">
<path d="M22.816 0.900117C22.0173 0.317516 21.024 0 20 0C18.976 0 17.9827 0.317516 17.184 0.900117L1.684 12.2053C1.15843 12.5887 0.734252 13.0745 0.442785 13.6268C0.151319 14.1792 9.38515e-07 14.784 0 15.3966V35.9085C0 36.9937 0.474106 38.0343 1.31802 38.8016C2.16193 39.5689 3.30653 40 4.5 40H9.5C10.6935 40 11.8381 39.5689 12.682 38.8016C13.5259 38.0343 14 36.9937 14 35.9085V25.9072C14 24.6524 15.12 23.6341 16.5 23.6341H23.5C24.88 23.6341 26 24.6524 26 25.9072V35.9085C26 36.9937 26.4741 38.0343 27.318 38.8016C28.1619 39.5689 29.3065 40 30.5 40H35.5C36.6935 40 37.8381 39.5689 38.682 38.8016C39.5259 38.0343 40 36.9937 40 35.9085V15.3966C40 14.784 39.8487 14.1792 39.5572 13.6268C39.2657 13.0745 38.8416 12.5887 38.316 12.2053L22.816 0.900117Z" fill="var(--tertiary-color)"/>
</svg>
