<svg width="40" height="40" viewBox="0 0 40 40" fill="none" xmlns="http://www.w3.org/2000/svg">
<path d="M20.0115 10C23.0758 10 26.0146 11.0536 28.1814 12.9289C30.3482 14.8043 31.5655 17.3478 31.5655 20C31.5655 22.6522 30.3482 25.1957 28.1814 27.0711C26.0146 28.9464 23.0758 30 20.0115 30C16.9472 30 14.0084 28.9464 11.8416 27.0711C9.67479 25.1957 8.4575 22.6522 8.4575 20C8.4575 17.3478 9.67479 14.8043 11.8416 12.9289C14.0084 11.0536 16.9472 10 20.0115 10ZM20.0115 0L25.5343 6.84C23.8243 6.3 21.9526 6 20.0115 6C18.0704 6 16.1987 6.3 14.4887 6.84L20.0115 0ZM-4.38955e-05 10L9.6129 9.3C8.1787 10.3485 6.95987 11.5995 6.00804 13C4.99129 14.48 4.41359 16 4.09008 17.58L-4.38955e-05 10ZM0.0461721 30L4.11319 22.46C4.79247 25.685 6.73466 28.6091 9.6129 30.74L0.0461721 30ZM40 10L35.9098 17.58C35.2554 14.3415 33.3092 11.4043 30.4101 9.28L40 10ZM39.9769 30L30.4101 30.72C31.7735 29.7 32.9982 28.44 33.9688 27C34.9393 25.54 35.5632 24 35.8867 22.42L39.9769 30ZM20.0115 40L14.4425 33.12C16.1525 33.66 18.0242 34 20.0115 34C21.9064 34 23.7781 33.66 25.4881 33.12L20.0115 40Z" fill="var(--tertiary-color)"/>
</svg>
