<svg viewBox="0 0 40 40" fill="none" xmlns="http://www.w3.org/2000/svg">
<path d="M0 5C0 2.24 2.41243 0 5.38489 0H13.0776C13.6897 8.46864e-09 14.2767 0.225765 14.7095 0.627628C15.1423 1.02949 15.3854 1.57454 15.3854 2.14286C15.3854 2.71118 15.1423 3.25622 14.7095 3.65809C14.2767 4.05995 13.6897 4.28571 13.0776 4.28571H5.38489C5.18087 4.28571 4.9852 4.36097 4.84093 4.49492C4.69667 4.62888 4.61562 4.81056 4.61562 5V35C4.61562 35.3943 4.96025 35.7143 5.38489 35.7143H13.0776C13.6897 35.7143 14.2767 35.9401 14.7095 36.3419C15.1423 36.7438 15.3854 37.2888 15.3854 37.8571C15.3854 38.4255 15.1423 38.9705 14.7095 39.3724C14.2767 39.7742 13.6897 40 13.0776 40H5.38489C3.95673 40 2.58706 39.4732 1.5772 38.5355C0.567335 37.5979 0 36.3261 0 35V5ZM32.1247 17.8571L26.0629 12.2286C25.7591 11.9667 25.537 11.6335 25.42 11.2642C25.3031 10.8949 25.2955 10.5032 25.3982 10.1303C25.5009 9.75735 25.71 9.41704 26.0035 9.14521C26.297 8.87339 26.6641 8.6801 27.066 8.58572C27.4672 8.49024 27.8886 8.4969 28.2861 8.605C28.6835 8.71309 29.0423 8.91863 29.3246 9.2L39.3251 18.4857C39.7573 18.8875 40 19.4321 40 20C40 20.5679 39.7573 21.1125 39.3251 21.5143L29.3246 30.8C29.0425 31.0821 28.6837 31.2883 28.286 31.3969C27.8883 31.5055 27.4664 31.5125 27.0647 31.4171C26.6631 31.3218 26.2966 31.1276 26.0039 30.8551C25.7111 30.5826 25.5029 30.2417 25.4013 29.8686C25.2985 29.4961 25.3056 29.1047 25.4221 28.7357C25.5385 28.3666 25.7598 28.0336 26.0629 27.7714L32.1247 22.1429H14.6161C14.0041 22.1429 13.4171 21.9171 12.9843 21.5152C12.5515 21.1134 12.3083 20.5683 12.3083 20C12.3083 19.4317 12.5515 18.8866 12.9843 18.4848C13.4171 18.0829 14.0041 17.8571 14.6161 17.8571H32.1247Z" fill="var(--tertiary-color)"/>
</svg>
