<svg viewBox="0 0 30 30" fill="none" xmlns="http://www.w3.org/2000/svg">
<path d="M8.3996 4.16833C9.54871 4.16833 10.6508 4.56342 11.4633 5.26668C12.2759 5.96995 12.7324 6.92377 12.7324 7.91833C12.7324 8.9129 12.2759 9.86672 11.4633 10.57C10.6508 11.2732 9.54871 11.6683 8.3996 11.6683C7.25048 11.6683 6.14842 11.2732 5.33588 10.57C4.52333 9.86672 4.06684 8.9129 4.06684 7.91833C4.06684 6.92377 4.52333 5.96995 5.33588 5.26668C6.14842 4.56342 7.25048 4.16833 8.3996 4.16833ZM8.3996 0.418335L10.4707 2.98334C9.82941 2.78084 9.1275 2.66833 8.3996 2.66833C7.67169 2.66833 6.96979 2.78084 6.32854 2.98334L8.3996 0.418335ZM0.895264 4.16833L4.50012 3.90583C3.96229 4.29901 3.50523 4.76814 3.1483 5.29333C2.76701 5.84833 2.55038 6.41834 2.42906 7.01083L0.895264 4.16833ZM0.912595 11.6683L2.43772 8.84083C2.69245 10.0502 3.42078 11.1467 4.50012 11.9458L0.912595 11.6683ZM15.8953 4.16833L14.3615 7.01083C14.1161 5.79641 13.3862 4.69496 12.2991 3.89833L15.8953 4.16833ZM15.8866 11.6683L12.2991 11.9383C12.8103 11.5558 13.2696 11.0833 13.6336 10.5433C13.9975 9.99584 14.2315 9.41833 14.3528 8.82584L15.8866 11.6683ZM8.3996 15.4183L6.31121 12.8383C6.95246 13.0408 7.65436 13.1683 8.3996 13.1683C9.11017 13.1683 9.81208 13.0408 10.4533 12.8383L8.3996 15.4183Z" fill="var(--quartenary-color)"/>
<rect width="40" height="1.5" rx="0.75" transform="matrix(-0.718721 0.695298 -0.615579 -0.788076 30.4624 2.18213)" fill="var(--quartenary-color)"/>
<path d="M22.5 30C20.4167 30 18.6458 29.2708 17.1875 27.8125C15.7292 26.3542 15 24.5833 15 22.5C15 20.4167 15.7292 18.6458 17.1875 17.1875C18.6458 15.7292 20.4167 15 22.5 15C22.6944 15 22.8856 15.0069 23.0733 15.0208C23.2611 15.0347 23.445 15.0556 23.625 15.0833C23.0556 15.4861 22.6006 16.0106 22.26 16.6567C21.9194 17.3028 21.7494 18.0006 21.75 18.75C21.75 20 22.1875 21.0625 23.0625 21.9375C23.9375 22.8125 25 23.25 26.25 23.25C27.0139 23.25 27.7153 23.0797 28.3542 22.7392C28.9931 22.3986 29.5139 21.9439 29.9167 21.375C29.9444 21.5556 29.9653 21.7394 29.9792 21.9267C29.9931 22.1139 30 22.305 30 22.5C30 24.5833 29.2708 26.3542 27.8125 27.8125C26.3542 29.2708 24.5833 30 22.5 30Z" fill="var(--quartenary-color)"/>
</svg>
